<svg width="32" height="32" viewBox="0 0 32 32" fill="none" xmlns="http://www.w3.org/2000/svg">
<path d="M22.0001 6.7C22.2001 6.7 22.5001 6.7 22.7001 6.7C23.0001 6.7 23.0001 6.5 23.0001 6.3C23.0001 6.2 22.9001 6 22.8001 6C22.6001 6 22.5001 6.1 22.3001 6.1C22.4001 6.5 22.2001 6.5 22.0001 6.7ZM22.0001 7C21.7001 7 21.4001 7 21.2001 7C21.1001 7 21.0001 7.3 21.0001 7.3C21.1001 7.5 21.2001 7.7 21.4001 8C21.6001 7.7 21.8001 7.4 22.0001 7ZM20.3001 4.1C20.4001 3.8 20.4001 3.6 20.5001 3.3H20.6001C20.6001 3.4 20.6001 3.5 20.6001 3.6C20.6001 3.7 20.6001 3.8 20.6001 3.8C20.8001 3.9 21.1001 4.1 21.3001 4.1C23.4001 4.1 25.4001 4.1 27.5001 4.1H27.8001C27.8001 4.2 27.9001 4.4 27.9001 4.5H28.0001C28.0001 4.1 28.1001 3.7 28.1001 3.2H28.2001C28.2001 3.6 28.3001 4 28.3001 4.4C28.5001 4.4 28.5001 4.3 28.6001 4.3C28.6001 4.4 28.6001 4.5 28.6001 4.6C28.6001 4.7 28.7001 4.8 28.8001 4.8C29.3001 4.8 29.9001 4.9 30.4001 4.8C30.8001 4.7 31.1001 4.8 31.4001 4.7C31.8001 4.7 31.8001 4.7 31.7001 5.1C31.0001 5.2 30.4001 5.1 29.7001 5.1C29.0001 5.1 28.3001 5.2 27.6001 5.2C27.6001 5.3 27.6001 5.4 27.6001 5.5C26.9001 5.5 26.2001 5.5 25.5001 5.5C25.2001 5.5 24.8001 5.6 24.5001 5.6V5.7C24.3001 5.9 24.2001 6.2 24.0001 6.3C23.9001 6.5 24.0001 6.8 24.0001 7C24.0001 7.4 24.2001 7.8 24.2001 8.2C23.6001 8.1 23.6001 8.6 23.5001 9C23.4001 9.3 23.4001 9.7 23.2001 9.9C22.9001 10.3 22.4001 10.5 22.0001 10.8C21.9001 10.9 21.7001 10.8 21.5001 10.8C21.3001 10.8 21.1001 10.8 21.0001 10.7C20.4001 10.5 19.9001 10.2 19.3001 9.9C19.1001 9.8 18.9001 9.7 18.8001 9.6C18.7001 9.8 18.7001 10.1 18.6001 10.3C19.0001 10.4 19.3001 10.6 19.3001 11.1C19.3001 11.4 19.3001 11.7 19.3001 12C19.3001 12.5 19.3001 13 19.2001 13.5C19.1001 13.9 18.9001 14.2 18.7001 14.6C18.7001 14.7 18.5001 14.7 18.4001 14.7C18.3001 14.7 18.1001 14.6 18.0001 14.5C17.8001 14.7 17.8001 14.9 17.8001 15.2C17.9001 15.7 18.1001 16 18.4001 16.3C19.2001 17.2 19.7001 18.3 20.2001 19.4C20.3001 19.8 20.5001 20.1 20.6001 20.5C20.6001 20.6 20.8001 20.7 20.8001 20.8L20.9001 20.9C21.0001 21.4 21.1001 21.8 21.1001 22.3C21.1001 23.2 20.9001 24 20.8001 24.9C20.8001 25.2 20.9001 25.5 20.9001 25.8C20.9001 26.1 20.8001 26.5 20.8001 26.8L20.7001 26.9C20.7001 27.5 20.7001 28.1 20.7001 28.7C20.7001 28.8 20.8001 28.9 20.9001 29C21.0001 29.1 21.1001 29.3 21.3001 29.4C21.6001 29.8 22.0001 30.2 22.5001 30.3C22.7001 30.3 22.8001 30.5 23.0001 30.5C23.2001 30.6 23.2001 30.8 23.2001 31.1C23.1001 31.3 23.0001 31.3 22.8001 31.3C22.1001 31.3 21.3001 31.3 20.6001 31.2C20.0001 31 19.5001 30.9 19.0001 31C18.9001 31 18.8001 31 18.7001 31C18.5001 31 18.3001 30.9 18.4001 30.6C18.5001 30.1 18.7001 29.6 18.8001 29.1C18.9001 28.8 18.8001 28.4 18.8001 28C18.8001 27.9 18.8001 27.8 18.8001 27.7C18.8001 27.4 18.8001 27.2 18.6001 26.9C18.4001 26.6 18.4001 26.2 18.3001 25.8C18.2001 25.2 18.2001 24.7 18.1001 24.1C18.1001 23.8 18.1001 23.6 18.3001 23.4C18.5001 23.2 18.5001 22.2 18.2001 21.9C18.1001 22 18.0001 22 17.9001 22C17.4001 22.1 17.2001 21.9 16.9001 21.5C16.5001 20.9 16.1001 20.3 15.7001 19.7C15.6001 19.6 15.4001 19.4 15.3001 19.4C14.9001 19.4 14.8001 19.2 14.6001 18.9C14.5001 18.8 14.5001 18.7 14.4001 18.5C14.3001 19 14.1001 19.3 13.8001 19.6C13.7001 19.8 13.6001 20 13.5001 20.2C13.3001 20.8 13.0001 21.4 12.9001 22C12.9001 22.3 12.7001 22.5 12.5001 22.6H12.4001C12.2001 23.3 11.5001 23.6 11.3001 24.3V24.4C11.5001 24.9 11.3001 25.3 11.1001 25.7C10.8001 26.3 10.6001 27 10.3001 27.6C10.3001 27.7 10.2001 27.8 10.1001 27.9C9.90011 28 9.80011 28.1 9.70011 28.3C9.30011 29 9.30011 29.8 9.30011 30.6C9.30011 30.7 9.40011 30.8 9.40011 30.9C9.40011 31.2 9.50011 31.4 9.50011 31.7L9.40011 31.8C8.70011 31.9 8.00011 32 7.40011 31.7C7.30011 31.7 7.20011 31.6 7.20011 31.5C7.00011 31.2 7.00011 30.7 7.10011 30.3C7.30011 29.6 7.50011 28.8 7.70011 28.1C7.70011 28 7.70011 27.9 7.70011 27.9C7.30011 27.4 7.50011 26.9 7.80011 26.4C7.80011 26.2 7.90011 26.1 8.00011 26C8.10011 25.7 8.20011 25.4 8.20011 25.2C8.30011 25 8.30011 24.8 8.40011 24.6C8.70011 24.1 9.00011 23.6 9.30011 23.2C9.50011 22.8 9.80011 22.4 9.80011 22C9.70011 20.8 10.0001 19.7 10.2001 18.6V18.5C9.90011 18.3 10.1001 18 9.90011 17.7C9.80011 17.6 10.0001 17.4 10.0001 17.2C9.60011 17 9.90011 16.7 9.90011 16.5C9.90011 16.4 10.1001 16.3 10.2001 16.2H10.3001C10.2001 15.6 10.2001 15 10.1001 14.4C10.1001 14 10.0001 13.7 10.0001 13.3C10.0001 12.9 10.3001 12.7 10.8001 12.6C10.5001 12.5 10.2001 12.5 9.90011 12.4C9.70011 12.4 9.60011 12.3 9.60011 12.1C9.60011 11.9 9.70011 11.7 9.70011 11.4C9.80011 10.8 9.80011 10.2 9.90011 9.5C9.90011 9.1 10.1001 9 10.4001 9C10.6001 9 10.7001 9 10.9001 9C11.2001 9 11.3001 8.9 11.2001 8.5C11.0001 7.3 11.2001 6.1 11.8001 5C12.3001 4.2 12.9001 3.6 13.9001 3.7C14.1001 3.7 14.3001 3.8 14.6001 3.9C14.7001 3.9 14.8001 3.8 14.7001 3.5C14.4001 2.5 14.6001 1.5 15.3001 0.699997C16.0001 -0.100003 17.3001 -0.200004 18.2001 0.399997C18.3001 0.499997 18.4001 0.499997 18.5001 0.599997C19.4001 0.899997 19.3001 1.7 19.4001 2.3C19.4001 2.4 19.4001 2.5 19.4001 2.6C19.6001 3 19.4001 3.3 19.0001 3.3C18.6001 3.4 18.7001 3.6 18.7001 3.9C18.7001 4 18.7001 4.2 18.8001 4.3C19.3001 4.3 19.8001 4.2 20.3001 4.1Z" fill="black"/>
</svg>
