<svg width="24" height="24" viewBox="0 0 24 24" fill="#FFF" xmlns="http://www.w3.org/2000/svg">
<g clip-path="url(#clip0)">
<path d="M18.9304 5.54573C17.6366 4.94041 16.2533 4.50049 14.807 4.25C14.6294 4.57112 14.4219 5.00304 14.2788 5.34663C12.7414 5.11542 11.2182 5.11542 9.70904 5.34663C9.566 5.00304 9.35378 4.57112 9.17457 4.25C7.72677 4.50049 6.34184 4.94203 5.04808 5.54893C2.43857 9.49225 1.73117 13.3376 2.08487 17.1284C3.81564 18.4209 5.49296 19.206 7.14197 19.7198C7.54912 19.1595 7.91225 18.5638 8.22507 17.936C7.62929 17.7096 7.05866 17.4302 6.51948 17.1059C6.66252 16.9999 6.80244 16.8892 6.93762 16.7752C10.2262 18.3133 13.7994 18.3133 17.0487 16.7752C17.1855 16.8892 17.3253 16.9999 17.4668 17.1059C16.9261 17.4318 16.3539 17.7112 15.7581 17.9376C16.0709 18.5638 16.4325 19.1611 16.8412 19.7214C18.4918 19.2076 20.1707 18.4225 21.9014 17.1284C22.3164 12.7339 21.1925 8.92386 18.9304 5.54573ZM8.6731 14.7971C7.68589 14.7971 6.8763 13.8755 6.8763 12.7532C6.8763 11.6309 7.6686 10.7077 8.6731 10.7077C9.67762 10.7077 10.4872 11.6293 10.4699 12.7532C10.4715 13.8755 9.67762 14.7971 8.6731 14.7971ZM15.3132 14.7971C14.326 14.7971 13.5164 13.8755 13.5164 12.7532C13.5164 11.6309 14.3087 10.7077 15.3132 10.7077C16.3177 10.7077 17.1273 11.6293 17.11 12.7532C17.11 13.8755 16.3177 14.7971 15.3132 14.7971Z" fill="black"/>
</g>
<defs>
<clipPath id="clip0">
<rect width="20" height="15.6164" fill="white" transform="translate(2 4.25)"/>
</clipPath>
</defs>
</svg>
