<svg width="33" height="32" viewBox="0 0 33 32" fill="none" xmlns="http://www.w3.org/2000/svg">
<path fill-rule="evenodd" clip-rule="evenodd" d="M6.6 26.4C6.3 26.3 6 26.1 5.7 25.9C3.5 24.4 3.7 25 4.5 22.4C4.8 21.3 5.4 20.3 5.8 19.1C8 21.2 10.2 23.1 12.3 25.1C12.3 25.2 12.3 25.3 12.3 25.4C10.6 25.8 9 26.3 7.3 26.7H7.2C7 26.6 6.8 26.5 6.6 26.4ZM19.1 7.1C19.1 7 19.1 6.9 19.2 6.8C20.1 6.6 21.1 6.3 22 6.1C22.4 6 22.9 5.9 23.3 5.8C23.6 5.8 23.9 5.7 24.1 5.8C26.2 6.7 25.9 6.5 25.6 8.4C25.5 9.4 25.3 10.3 25.2 11.5C23.1 9.9 21.1 8.5 19.1 7.1ZM25.3 26.2C24.6 26.2 23.8 26.2 23.1 26.1C22.7 26.1 22.3 25.9 22.1 25.6C20.7 24.1 19.4 22.6 18.1 21.2C17.1 20.2 16.3 19 15.1 18.1C12.6 16.3 10.8 13.9 8.8 11.8C7.2 10.1 5.5 8.4 3.8 6.7C3.7 6.6 3.6 6.5 3.4 6.2C4.2 5.9 4.8 5.7 5.5 5.5C5.7 5.4 6 5.5 6.2 5.6C7.3 6.3 8.3 7.1 9.4 7.8C9.8 8.1 10.2 8.3 10.5 8.5C15 11.4 19.5 14.4 23.9 17.3C24.2 17.5 24.3 17.8 24.6 18.1C25.9 18.1 26.8 19.3 27.9 20C28 20.1 28.1 20.4 28 20.6C27.6 22.1 27.2 23.6 26.7 25.1C26.5 25.8 26.1 26.2 25.3 26.2C25.4 26.2 25.4 26.2 25.3 26.2ZM13.7 0C13.3 0 12.9 0.1 12.5 0.3C11.7 0.8 11 1.1 10.1 1C9.3 0.9 8.5 0.6 7.7 0.6C5.3 0.5 2.9 0.6 0.5 0.6C0.3 0.6 0.1 0.8 0 0.9C0 1.4 0 1.8 0 2.3C0 3 0.2 3.6 0.2 4.3C0.2 5.3 0 6.3 0 7.3V10.2C0.1 10.9 0.3 11.6 0.4 12.3C0.6 13.3 0.6 14.3 0.9 15.2C1 15.8 0.9 16.1 0.5 16.4C0.3 16.6 0 16.9 0.1 17C0.5 18.2 -0.3 19.7 1 20.6C1 20.6 1.1 20.7 1.1 20.8C1 22 1.3 23.3 0.4 24.4C0.2 24.6 0.2 25 0.2 25.3C0.2 26.7 0.3 28.1 0.2 29.5C0.1 30.3 0.3 30.6 1 30.6C2.1 30.6 3.2 30.6 4.4 30.6C5.9 30.6 7.3 30.7 8.8 30.7C9.8 30.7 10.8 30.7 11.8 30.8C12.4 30.8 13 30.8 13.4 31.5C13.5 31.7 13.8 31.8 14 32C14.6 31.2 15.2 31.3 15.9 31.7C16.4 31.9 17.1 32 17.8 31.6C18 31.4 18.4 31.4 18.8 31.4C19.4 31.3 20.1 31.3 20.8 31.3C22.6 31.3 24.4 30.8 26.2 31.2C26.9 31.4 27.7 31.2 28.5 31.2C28.7 31.2 29 31 29 30.9C28.9 30.3 29.4 30.4 29.7 30.4C30.5 30.5 31.3 30.7 32.1 30.9V18.2C31.8 18.1 31.5 18.1 31.2 18.1C32.1 17.2 31.6 16.2 31.7 15.2C31.7 14.2 31.6 13.2 30.9 12.6C31.1 12.1 31.1 11.7 31.3 11.4C31.4 11.2 31.6 11 31.7 10.8C31.9 10.5 32.2 10.2 32.2 9.9C32.2 8.6 32.1 7.3 32.2 6C32.3 4.7 31.7 3.4 32.1 2.1C32.2 1.9 31.9 1.5 31.7 1.2C30.9 0.4 28.7 0.3 27.7 0.9C27.3 0.7 27 0.4 26.6 0.3C25 0.2 23.4 0.2 21.7 0.1C21.5 0.1 21.2 0.4 21.1 0.6C20.8 1.3 20.3 1.6 19.6 1.2C19 1 18.5 0.7 18 0.4C18 0.3 18 0.2 18.1 0C17.2 0 16.4 0 15.6 0C15 0 14.3 0 13.7 0Z" fill="black"/>
</svg>
