<svg width="32" height="32" viewBox="0 0 32 32" fill="none" xmlns="http://www.w3.org/2000/svg">
<path fill-rule="evenodd" clip-rule="evenodd" d="M26 3.5L23.4 6.5C21.3 4.9 18.8 4 16 4C13.2 4 10.6 4.9 8.6 6.5C7.8 5.5 6.5 4 6 3.5C8.8 1.3 12.2 0 16 0C19.8 0 23.2 1.3 26 3.5ZM26.4 22C27.4 20.2 28 18.2 28 16C28 12.6 26.6 9.5 24.2 7.3L26.8 4.3C30 7.2 32 11.4 32 16C32 24.8 24.8 32 16 32C7.2 32 0 24.8 0 16C0 11.4 2 7.2 5.1 4.3L7.7 7.3C5.4 9.5 4 12.6 4 16C4 18.2 4.6 20.3 5.6 22L12.4 15.3L15.4 8.8V19L8.7 25.5C10.7 27 13.2 28 16 28C18.8 28 21.4 27 23.5 25.4L16.7 19V8.9L19.8 15.6L26.4 22Z" fill="black"/>
</svg>
