<svg width="32" height="32" viewBox="0 0 32 32" fill="none" xmlns="http://www.w3.org/2000/svg">
<path d="M16.4 20C16.4 20 16.5 20.1 16.6 20.2C16.8 20.4 16.9 20.4 16.9 20.6V20.7H16.8C16.7 20.7 16.7 20.7 16.7 20.7C16.7 20.7 16.6 20.6 16.5 20.6C16.3 20.6 16.3 20.6 16 20.6C15.6 20.6 15.6 20.6 15.3 20.7C15 20.8 15 20.8 15 21.3C15 21.9 15 22 15.6 22C15.9 22 16.4 22 16.6 22C16.8 22 16.9 21.9 17 21.8C17 21.8 17 21.5 17 21.2C17 20.7 17 20.3 16.9 20.2C16.8 20.1 16.6 20 16.4 20ZM20.5 16C20.6 16 20.9 16.3 20.9 16.4L21 16.5V17.6C21 18.2 21 18.7 21 18.7C21 18.7 19.4 19 18 19.2H17.9L17.8 19.4L17.7 19.6V20.7C17.7 21.6 17.7 21.8 17.6 21.9C17.6 22 17.5 22 17.5 22C17.5 22 17.3 22 17.1 22H16.8L16.6 22.1C16.3 22.2 15.8 22.4 15.7 22.5L15.6 22.6V25.1V27.6L15.5 27.7L15.4 27.8H15.1C14.9 27.8 14.8 27.8 14.8 27.8C14.8 27.8 14.7 27.8 14.7 27.9V28H13.6V27.9C13.5 27.8 13.4 27.8 13.3 27.8C13.2 27.8 13.2 27.8 13.2 27.7V27.6C13.2 27.5 13.2 27.5 13.1 27.5H13V27.4C13 27.3 13 27.3 13.1 27.2L13.2 27.1V17.5L13.1 17.4H13V17H13.1H13.2V16.8C13.2 16.6 13.2 16.6 13.3 16.6C13.3 16.6 13.5 16.5 13.7 16.5L14 16.3H15.5V16.4C15.6 16.7 15.8 16.9 16.2 17C16.3 17 16.4 17 16.5 17C17.3 16.9 18.4 16.6 19.2 16.2C19.4 16.1 19.5 16.1 19.7 16C20 16 20.4 16 20.5 16ZM14.8 0C13.8 0.1 12.9 0.2 12.2 0.4C10.2 1 9 2.2 8.3 4C8.2 4.3 8.1 4.7 8 5.2V5.4V27.1L8.1 27.4C8.2 27.9 8.4 28.3 8.6 28.8C9 29.6 9.6 30.3 10.5 30.8C11.2 31.2 12.1 31.5 13.1 31.8C13.4 31.9 14 31.9 14.5 32C14.9 32 15.1 32 15.8 32C16.7 32 17 32 17.8 31.9C19.8 31.6 21.3 31.1 22.3 30.1C23.1 29.4 23.6 28.4 23.9 27.2V27V13.3L23.8 13.2C23.7 12.8 23.4 12.4 22.9 11.9C22.4 11.5 22.2 11.3 21.8 11.2C21.2 10.9 20.6 10.8 19.7 10.7C19.4 10.7 19.2 10.7 18.3 10.7C17.2 10.7 16.9 10.7 16.4 10.8C16 10.7 15.6 10.8 15.3 11C15.1 11.1 14.9 11.2 14.9 11.3V11.4V6.2V6C15 6 15 5.9 15.1 5.8C15.2 5.7 15.4 5.6 15.5 5.6C15.6 5.6 16.5 5.6 16.6 5.6C16.7 5.6 16.9 5.7 17 5.7C17.1 5.8 17.2 6 17.2 6C17.2 6 17.2 6.8 17.2 7.6V9.2H20.6H24V7.2C24 5.3 24 5.2 24 5C23.8 4 23.5 3.2 23.1 2.5C22.2 1.2 20.6 0.3 18.3 0C17.6 0 17.2 0 16 0C15.4 0 14.8 0 14.8 0Z" fill="black"/>
</svg>
