<svg width="24" height="24" viewBox="0 0 24 24" fill="none" xmlns="http://www.w3.org/2000/svg">
<path d="M21.7025 6.11417C21.0067 6.4225 20.2592 6.63083 19.4733 6.725C20.275 6.245 20.89 5.48333 21.18 4.57667C20.43 5.02167 19.5992 5.345 18.715 5.51833C18.0067 4.765 16.9983 4.29333 15.8817 4.29333C13.7383 4.29333 12 6.03167 12 8.17667C12 8.48 12.035 8.775 12.1 9.06C8.87249 8.8975 6.01332 7.35167 4.09832 5.00333C3.76499 5.57833 3.57332 6.245 3.57332 6.955C3.57332 8.30167 4.25916 9.49084 5.29999 10.1867C4.66332 10.1658 4.06499 9.99167 3.54166 9.70084V9.75083C3.54166 11.6317 4.87916 13.2008 6.65582 13.5575C6.32916 13.6458 5.98666 13.6925 5.63332 13.6925C5.38332 13.6925 5.13916 13.6692 4.90249 13.6242C5.39666 15.1658 6.82999 16.2892 8.52916 16.3192C7.19999 17.3608 5.52582 17.9817 3.70749 17.9817C3.39416 17.9817 3.08499 17.9633 2.78082 17.9275C4.49916 19.03 6.53916 19.6717 8.73082 19.6717C15.8725 19.6717 19.7767 13.7567 19.7767 8.62667C19.7767 8.46 19.7725 8.29167 19.765 8.125C20.5233 7.57667 21.1817 6.89417 21.7008 6.11667L21.7025 6.11417Z" fill="black"/>
</svg>
